<svg xmlns="http://www.w3.org/2000/svg" viewBox="0 0 1600 720" role="img" aria-labelledby="yuccaTitle yuccaDesc">
  <title id="yuccaTitle">Animated yucca flowers over plains and mountains</title>
  <desc id="yuccaDesc">A layered vector banner with yucca flowers, plains, mountains, drifting wind lines, and a small call-to-action ribbon.</desc>
  <defs>
    <linearGradient id="sky" x1="0" y1="0" x2="0" y2="1">
      <stop offset="0" stop-color="#b8dceb"/>
      <stop offset="0.54" stop-color="#f4dcc1"/>
      <stop offset="1" stop-color="#f6f2df"/>
    </linearGradient>
    <linearGradient id="sunwash" x1="0" y1="0" x2="1" y2="1">
      <stop offset="0" stop-color="#fff8dc" stop-opacity="0.86"/>
      <stop offset="0.48" stop-color="#f4b06f" stop-opacity="0.26"/>
      <stop offset="1" stop-color="#ffffff" stop-opacity="0"/>
    </linearGradient>
    <linearGradient id="mountainFar" x1="0" y1="0" x2="1" y2="1">
      <stop offset="0" stop-color="#7fa2b7" stop-opacity="0.72"/>
      <stop offset="1" stop-color="#b9939a" stop-opacity="0.72"/>
    </linearGradient>
    <linearGradient id="mountainNear" x1="0" y1="0" x2="1" y2="1">
      <stop offset="0" stop-color="#557c90"/>
      <stop offset="1" stop-color="#9e6f72"/>
    </linearGradient>
    <linearGradient id="yuccaLeaf" x1="0" y1="0" x2="1" y2="1">
      <stop offset="0" stop-color="#223f45"/>
      <stop offset="0.45" stop-color="#5f816c"/>
      <stop offset="1" stop-color="#c6c58a"/>
    </linearGradient>
    <linearGradient id="flower" x1="0" y1="0" x2="0" y2="1">
      <stop offset="0" stop-color="#fff8d7"/>
      <stop offset="0.62" stop-color="#f4ecd0"/>
      <stop offset="1" stop-color="#d6bd80"/>
    </linearGradient>
    <filter id="softShadow" x="-20%" y="-20%" width="140%" height="150%">
      <feDropShadow dx="0" dy="16" stdDeviation="16" flood-color="#173047" flood-opacity="0.16"/>
    </filter>
    <style>
      .far-range { animation: yucca-parallax-far 28s ease-in-out infinite alternate; }
      .near-range { animation: yucca-parallax-near 24s ease-in-out infinite alternate; }
      .cloud-bank { animation: yucca-cloud-drift 54s linear infinite; }
      .wind-line {
        fill: none;
        stroke: rgba(255,255,255,0.66);
        stroke-width: 2.2;
        stroke-linecap: round;
        stroke-dasharray: 220 80;
        animation: yucca-wind 13s linear infinite;
      }
      .wind-line.thin { stroke-width: 1.2; opacity: 0.58; animation-duration: 18s; }
      .wind-line.gold { stroke: rgba(216,187,104,0.42); animation-duration: 16s; }
      .yucca-sway {
        transform-box: fill-box;
        transform-origin: 50% 100%;
        animation: yucca-sway 6.8s ease-in-out infinite alternate;
      }
      .yucca-sway.slow { animation-duration: 8.4s; animation-delay: -1.1s; }
      .yucca-sway.fast { animation-duration: 5.9s; animation-delay: -2.2s; }
      .blossom {
        transform-box: fill-box;
        transform-origin: 50% 18%;
        animation: yucca-blossom 5.4s ease-in-out infinite alternate;
      }
      .blossom.d2 { animation-delay: -1.4s; }
      .blossom.d3 { animation-delay: -2.7s; }
      .leaf-sway {
        transform-box: fill-box;
        transform-origin: 50% 100%;
        animation: yucca-leaf 7.5s ease-in-out infinite alternate;
      }
      .petal {
        transform-box: fill-box;
        transform-origin: 0 0;
        animation: yucca-petal 12s ease-in-out infinite;
      }
      .petal.p2 { animation-delay: -4s; }
      .petal.p3 { animation-delay: -8s; }
      .cta-pulse { animation: yucca-cta 4.6s ease-in-out infinite; }
      @keyframes yucca-parallax-far {
        from { transform: translateX(-8px); }
        to { transform: translateX(10px); }
      }
      @keyframes yucca-parallax-near {
        from { transform: translateX(12px); }
        to { transform: translateX(-12px); }
      }
      @keyframes yucca-cloud-drift {
        from { transform: translateX(-180px); }
        to { transform: translateX(1680px); }
      }
      @keyframes yucca-wind {
        from { stroke-dashoffset: 260; transform: translateX(-34px); }
        to { stroke-dashoffset: -260; transform: translateX(56px); }
      }
      @keyframes yucca-sway {
        from { transform: rotate(-1.9deg) translateX(-2px); }
        to { transform: rotate(2.4deg) translateX(3px); }
      }
      @keyframes yucca-blossom {
        from { transform: rotate(-3deg) translateY(0); }
        to { transform: rotate(2.2deg) translateY(2px); }
      }
      @keyframes yucca-leaf {
        from { transform: rotate(-1deg); }
        to { transform: rotate(1.6deg); }
      }
      @keyframes yucca-petal {
        0%, 100% { transform: translate(0, 0) rotate(-8deg); opacity: 0.9; }
        50% { transform: translate(34px, 9px) rotate(8deg); opacity: 0.58; }
      }
      @keyframes yucca-cta {
        0%, 100% { opacity: 0.84; transform: translateX(0); }
        50% { opacity: 1; transform: translateX(8px); }
      }
      @media (prefers-reduced-motion: reduce) {
        .yucca-sway,
        .wind-line,
        .cta-pulse,
        .cloud-bank,
        .far-range,
        .near-range,
        .leaf-sway,
        .blossom,
        .petal {
          animation: none !important;
        }
      }
    </style>
  </defs>

  <rect width="1600" height="720" fill="url(#sky)"/>
  <circle cx="1180" cy="250" r="250" fill="url(#sunwash)" opacity="0.74"/>
  <path d="M0 356c133-32 236-42 344-25 174 28 287 79 465 34 186-47 317-122 516-85 118 22 205 54 275 35v405H0z" fill="#f5d7a6" opacity="0.28"/>

  <g class="cloud-bank" opacity="0.5">
    <path d="M-140 165c22-42 76-48 104-20 21-46 89-60 122-22 24-18 68-18 92 2 33 28 18 71-42 71h-276z" fill="#fff8ee"/>
    <path d="M-460 232c16-30 54-37 76-16 15-34 64-46 89-18 18-14 54-13 72 4 25 23 14 54-30 54h-207z" fill="#fff8ee" opacity="0.8"/>
  </g>
  <path class="wind-line thin" d="M520 128c168 48 292 50 436 2 126-42 236-38 364 7"/>
  <path class="wind-line" d="M360 178c190 76 384 80 566 20 192-63 342-45 536 24"/>
  <path class="wind-line gold" d="M660 246c142 30 288 20 422-28 102-37 192-24 286 22"/>
  <path class="wind-line thin" d="M80 214c160 44 275 40 386-4 86-34 166-31 252 12"/>

  <g class="far-range">
    <path d="M0 438l130-88 122 32 184-122 132 112 138-92 160 128 118-60 126 77 186-135 214 142v286H0z" fill="url(#mountainFar)" opacity="0.64"/>
    <path d="M426 262l44 99 66-10-88 42-14-74-58 28z" fill="#f5d8c1" opacity="0.52"/>
    <path d="M1098 298l74 129 88-24-120 62-32-96-72 42z" fill="#f5d8c1" opacity="0.46"/>
  </g>

  <g class="near-range">
    <path d="M0 496l174-92 160 54 214-138 178 138 128-70 182 92 218-158 346 166v232H0z" fill="url(#mountainNear)" opacity="0.74"/>
    <path d="M256 420c130 38 241 44 348 21 122-26 220-25 332 23 146 63 301 69 482 26v230H0V546c82-58 166-100 256-126z" fill="#d7c18a" opacity="0.44"/>
  </g>

  <g id="plains" opacity="0.96">
    <path d="M0 542c155-30 300-28 438 8 122 31 265 36 426 10 182-30 355-18 520 42 85 31 155 37 216 18v100H0z" fill="#d8bb68" opacity="0.36"/>
    <path d="M0 626c184-22 324-23 446-5 176 26 318 17 460-28 188-58 388-46 694 40v87H0z" fill="#9baa72" opacity="0.36"/>
    <path d="M0 673c236-34 438-34 606 0 180 37 315 40 496 5 178-34 340-26 498 22v20H0z" fill="#173047" opacity="0.12"/>
  </g>

  <g id="left-yucca" filter="url(#softShadow)" transform="translate(-18 34)">
    <g class="leaf-sway">
      <path d="M150 686l68-272 34 285z" fill="url(#yuccaLeaf)"/>
      <path d="M148 690l-64-245 118 246z" fill="#173047" opacity="0.9"/>
      <path d="M178 686l152-224-81 232z" fill="#59786a"/>
      <path d="M188 690l222-146-156 156z" fill="#2d5557"/>
      <path d="M118 690L0 512l168 176z" fill="#24474d"/>
      <path d="M204 692l66-174 7 181z" fill="#9baa72"/>
      <path d="M112 692L44 594l102 96z" fill="#5f816c"/>
      <path d="M230 694l128-66-82 72z" fill="#c0bd84"/>
    </g>
    <g class="yucca-sway slow" transform="translate(202 236)">
      <path d="M0 430C24 320 36 213 24 0" fill="none" stroke="#4f623d" stroke-width="10" stroke-linecap="round"/>
      <path d="M24 58c24-24 52-42 82-55" fill="none" stroke="#60723e" stroke-width="7" stroke-linecap="round"/>
      <path d="M24 114c-25-25-48-39-75-49" fill="none" stroke="#60723e" stroke-width="7" stroke-linecap="round"/>
      <path d="M30 186c34-24 65-37 104-43" fill="none" stroke="#60723e" stroke-width="7" stroke-linecap="round"/>
      <path d="M26 252c-28-22-59-38-94-46" fill="none" stroke="#60723e" stroke-width="7" stroke-linecap="round"/>
      <g class="blossom"><ellipse cx="112" cy="4" rx="17" ry="33" fill="url(#flower)" transform="rotate(25 112 4)"/><ellipse cx="88" cy="8" rx="15" ry="30" fill="url(#flower)" transform="rotate(-12 88 8)"/></g>
      <g class="blossom d2"><ellipse cx="-54" cy="68" rx="17" ry="34" fill="url(#flower)" transform="rotate(-24 -54 68)"/><ellipse cx="-26" cy="76" rx="15" ry="29" fill="url(#flower)" transform="rotate(12 -26 76)"/></g>
      <g class="blossom d3"><ellipse cx="132" cy="144" rx="15" ry="32" fill="url(#flower)" transform="rotate(26 132 144)"/><ellipse cx="104" cy="151" rx="14" ry="28" fill="url(#flower)" transform="rotate(-10 104 151)"/></g>
      <g class="blossom"><ellipse cx="-68" cy="212" rx="16" ry="33" fill="url(#flower)" transform="rotate(-20 -68 212)"/><ellipse cx="-38" cy="221" rx="14" ry="29" fill="url(#flower)" transform="rotate(12 -38 221)"/></g>
    </g>
    <g class="yucca-sway fast" transform="translate(98 288)">
      <path d="M0 382C22 276 30 156 12 0" fill="none" stroke="#405735" stroke-width="8" stroke-linecap="round"/>
      <path d="M12 54c-22-18-46-28-72-33" fill="none" stroke="#61723f" stroke-width="6" stroke-linecap="round"/>
      <path d="M18 116c25-17 52-27 82-32" fill="none" stroke="#61723f" stroke-width="6" stroke-linecap="round"/>
      <path d="M16 194c-22-15-48-25-78-29" fill="none" stroke="#61723f" stroke-width="6" stroke-linecap="round"/>
      <g class="blossom d2"><ellipse cx="-62" cy="24" rx="14" ry="28" fill="url(#flower)" transform="rotate(-16 -62 24)"/><ellipse cx="-39" cy="29" rx="12" ry="25" fill="url(#flower)" transform="rotate(18 -39 29)"/></g>
      <g class="blossom"><ellipse cx="92" cy="82" rx="14" ry="29" fill="url(#flower)" transform="rotate(24 92 82)"/><ellipse cx="68" cy="91" rx="12" ry="25" fill="url(#flower)" transform="rotate(-12 68 91)"/></g>
      <g class="blossom d3"><ellipse cx="-66" cy="167" rx="13" ry="28" fill="url(#flower)" transform="rotate(-20 -66 167)"/><ellipse cx="-42" cy="174" rx="12" ry="23" fill="url(#flower)" transform="rotate(12 -42 174)"/></g>
    </g>
  </g>

  <g id="right-yucca" opacity="0.92" transform="translate(1208 304) scale(0.72)">
    <g class="leaf-sway">
      <path d="M160 562l-110-200 154 199z" fill="#183743"/>
      <path d="M176 564l46-252 24 254z" fill="url(#yuccaLeaf)"/>
      <path d="M190 562l158-180-102 184z" fill="#5f816c"/>
      <path d="M206 562l226-84-164 91z" fill="#284f54"/>
      <path d="M132 564L0 470l170 92z" fill="#527261"/>
    </g>
    <g class="yucca-sway" transform="translate(196 118)">
      <path d="M0 420C28 298 38 166 20 0" fill="none" stroke="#485b37" stroke-width="9" stroke-linecap="round"/>
      <path d="M23 70c26-20 55-32 88-38" fill="none" stroke="#657543" stroke-width="6" stroke-linecap="round"/>
      <path d="M22 136c-26-21-54-33-86-39" fill="none" stroke="#657543" stroke-width="6" stroke-linecap="round"/>
      <path d="M24 208c30-20 61-30 96-32" fill="none" stroke="#657543" stroke-width="6" stroke-linecap="round"/>
      <g class="blossom"><ellipse cx="112" cy="38" rx="15" ry="31" fill="url(#flower)" transform="rotate(22 112 38)"/><ellipse cx="88" cy="45" rx="13" ry="28" fill="url(#flower)" transform="rotate(-12 88 45)"/></g>
      <g class="blossom d2"><ellipse cx="-68" cy="102" rx="15" ry="30" fill="url(#flower)" transform="rotate(-20 -68 102)"/><ellipse cx="-42" cy="108" rx="13" ry="27" fill="url(#flower)" transform="rotate(11 -42 108)"/></g>
      <g class="blossom d3"><ellipse cx="120" cy="180" rx="14" ry="29" fill="url(#flower)" transform="rotate(23 120 180)"/><ellipse cx="94" cy="187" rx="12" ry="25" fill="url(#flower)" transform="rotate(-12 94 187)"/></g>
    </g>
  </g>

  <g opacity="0.78">
    <path class="petal" d="M545 238c34-18 54-14 78 14-32 18-57 12-78-14z" fill="#fff3d3"/>
    <path class="petal p2" d="M884 154c26-13 43-9 62 12-26 15-45 10-62-12z" fill="#fff3d3"/>
    <path class="petal p3" d="M1016 312c28-16 47-11 68 13-29 16-50 11-68-13z" fill="#fff3d3"/>
  </g>

</svg>
